<?xml version="1.0" encoding="UTF-8" standalone="no"?>
<svg
   xmlns:dc="http://purl.org/dc/elements/1.1/"
   xmlns:cc="http://creativecommons.org/ns#"
   xmlns:rdf="http://www.w3.org/1999/02/22-rdf-syntax-ns#"
   xmlns:svg="http://www.w3.org/2000/svg"
   xmlns="http://www.w3.org/2000/svg"
   xmlns:sodipodi="http://sodipodi.sourceforge.net/DTD/sodipodi-0.dtd"
   xmlns:inkscape="http://www.inkscape.org/namespaces/inkscape"
   viewBox="0 0 593.20002 80.2"
   height="80.199997"
   width="593.20001"
   version="1.1"
   id="svg2"
   inkscape:version="0.91 r13725"
   sodipodi:docname="logo_header_tracciato.svg">
  <sodipodi:namedview
     pagecolor="#ffffff"
     bordercolor="#666666"
     borderopacity="1"
     objecttolerance="10"
     gridtolerance="10"
     guidetolerance="10"
     inkscape:pageopacity="0"
     inkscape:pageshadow="2"
     inkscape:window-width="1808"
     inkscape:window-height="925"
     id="namedview9"
     showgrid="false"
     inkscape:zoom="1.4485868"
     inkscape:cx="327.10891"
     inkscape:cy="51.917269"
     inkscape:window-x="0"
     inkscape:window-y="24"
     inkscape:window-maximized="0"
     inkscape:current-layer="svg2" />
  <metadata
     id="metadata8">
    <rdf:RDF>
      <cc:Work
         rdf:about="">
        <dc:format>image/svg+xml</dc:format>
        <dc:type
           rdf:resource="http://purl.org/dc/dcmitype/StillImage" />
        <dc:title></dc:title>
      </cc:Work>
    </rdf:RDF>
  </metadata>
  <defs
     id="defs6" />
  <path
     style="fill:#b61918"
     d="m 5.39492,69.275586 0,-5.85 34.65,0 34.65,0 0,5.85 0,5.85 -34.65,0 -34.65,0 0,-5.85 z m 0,-14.4 0,-5.85 34.65,0 34.65,0 0,5.85 0,5.85 -34.65,0 -34.65,0 0,-5.85 z m 0,-14.85 0,-5.4 34.65,0 34.65,0 0,5.4 0,5.4 -34.65,0 -34.65,0 0,-5.4 z m 0,-14.85 0,-5.85 34.65,0 34.65,0 0,5.85 0,5.85 -34.65,0 -34.65,0 0,-5.85 z m 0,-14.399998 0,-5.8499994 34.65,0 34.65,0 0,5.8499994 0,5.849998 -34.65,0 -34.65,0 0,-5.849998 z"
     id="path4142"
     inkscape:connector-curvature="0" />
  <path
     style="fill:#000000"
     d="m 78.29492,61.625586 0,-12.6 12.81294,0 12.81295,0 -12.57589,12.6 c -6.91674,6.93 -12.68256,12.6 -12.81295,12.6 -0.13038,0 -0.23705,-5.67 -0.23705,-12.6 z"
     id="path4140"
     inkscape:connector-curvature="0" />
  <rect
     y="34.680965"
     x="78.02034"
     height="10.922033"
     width="35.389828"
     id="rect4149"
     style="opacity:1;fill:#9e9e9d;fill-opacity:1;stroke:none;stroke-width:4;stroke-linecap:round;stroke-linejoin:round;stroke-miterlimit:4;stroke-dasharray:none;stroke-opacity:1" />
  <rect
     style="opacity:1;fill:#9e9e9d;fill-opacity:1;stroke:none;stroke-width:4;stroke-linecap:round;stroke-linejoin:round;stroke-miterlimit:4;stroke-dasharray:none;stroke-opacity:1"
     id="rect4151"
     width="35.389828"
     height="10.922033"
     x="78.02034"
     y="19.513275" />
  <text
     xml:space="preserve"
     style="font-style:normal;font-variant:normal;font-weight:normal;font-stretch:normal;font-size:40px;line-height:125%;font-family:'Titillium Web';-inkscape-font-specification:'Titillium Web';letter-spacing:0px;word-spacing:0px;fill:#000000;fill-opacity:1;stroke:none;stroke-width:1px;stroke-linecap:butt;stroke-linejoin:miter;stroke-opacity:1"
     x="137.16611"
     y="-4.2472734"
     id="text4137"
     sodipodi:linespacing="125%"><tspan
       sodipodi:role="line"
       id="tspan4139"
       x="137.16611"
       y="-4.2472734"
       style="font-style:normal;font-variant:normal;font-weight:normal;font-stretch:normal;font-family:'Titillium Web';-inkscape-font-specification:'Titillium Web'" /></text>
  <g
     style="font-style:normal;font-weight:normal;font-size:40px;line-height:125%;font-family:sans-serif;letter-spacing:0px;word-spacing:0px;fill:#000000;fill-opacity:1;stroke:none;stroke-width:1px;stroke-linecap:butt;stroke-linejoin:miter;stroke-opacity:1"
     id="text4141">
    <path
       d="m 134.26399,32.446903 q 0,5.985 6.3,5.985 6.3,0 6.3,-5.985 l 0,-20.97 5.04,0 0,20.88 q 0,5.445 -2.88,7.965 -2.835,2.475 -8.505,2.475 -5.625,0 -8.46,-2.475 -2.835,-2.52 -2.835,-7.965 l 0,-20.88 5.04,0 0,20.97 z"
       style="font-style:normal;font-variant:normal;font-weight:600;font-stretch:normal;font-size:45px;font-family:'Titillium Web';-inkscape-font-specification:'Titillium Web Semi-Bold'"
       id="path4212" />
    <path
       d="m 162.90578,42.301903 -4.905,0 0,-22.5 4.86,0 0,1.395 q 3.285,-1.89 6.21,-1.89 4.5,0 6.12,2.565 1.665,2.52 1.665,8.37 l 0,12.06 -4.86,0 0,-11.925 q 0,-3.645 -0.81,-5.175 -0.765,-1.53 -3.195,-1.53 -2.295,0 -4.41,0.9 l -0.675,0.27 0,17.46 z"
       style="font-style:normal;font-variant:normal;font-weight:600;font-stretch:normal;font-size:45px;font-family:'Titillium Web';-inkscape-font-specification:'Titillium Web Semi-Bold'"
       id="path4214" />
    <path
       d="m 182.61016,42.301903 0,-22.5 4.905,0 0,22.5 -4.905,0 z m 0,-26.325 0,-5.175 4.905,0 0,5.175 -4.905,0 z"
       style="font-style:normal;font-variant:normal;font-weight:600;font-stretch:normal;font-size:45px;font-family:'Titillium Web';-inkscape-font-specification:'Titillium Web Semi-Bold'"
       id="path4216" />
    <path
       d="m 191.30571,19.801903 5.13,0 4.32,18.315 1.44,0 4.5,-18.315 4.995,0 -5.85,22.5 -8.73,0 -5.805,-22.5 z"
       style="font-style:normal;font-variant:normal;font-weight:600;font-stretch:normal;font-size:45px;font-family:'Titillium Web';-inkscape-font-specification:'Titillium Web Semi-Bold'"
       id="path4218" />
    <path
       d="m 231.14969,38.251903 1.26,-0.135 0.09,3.645 q -5.13,1.035 -9.09,1.035 -4.995,0 -7.2,-2.745 -2.16,-2.745 -2.16,-8.775 0,-11.97 9.765,-11.97 9.45,0 9.45,10.305 l -0.315,3.51 -13.95,0 q 0.045,2.79 1.215,4.095 1.17,1.305 4.365,1.305 3.195,0 6.57,-0.27 z m -2.7,-8.91 q 0,-3.33 -1.08,-4.635 -1.035,-1.35 -3.555,-1.35 -2.52,0 -3.69,1.395 -1.125,1.395 -1.17,4.59 l 9.495,0 z"
       style="font-style:normal;font-variant:normal;font-weight:600;font-stretch:normal;font-size:45px;font-family:'Titillium Web';-inkscape-font-specification:'Titillium Web Semi-Bold'"
       id="path4220" />
    <path
       d="m 237.98125,42.301903 0,-22.5 4.86,0 0,2.7 q 3.825,-2.475 7.65,-3.195 l 0,4.905 q -3.87,0.765 -6.615,1.98 l -0.99,0.405 0,15.705 -4.905,0 z"
       style="font-style:normal;font-variant:normal;font-weight:600;font-stretch:normal;font-size:45px;font-family:'Titillium Web';-inkscape-font-specification:'Titillium Web Semi-Bold'"
       id="path4222" />
    <path
       d="m 269.85602,24.436903 q -5.31,-0.72 -7.695,-0.72 -2.385,0 -3.33,0.585 -0.9,0.54 -0.9,1.755 0,1.215 0.99,1.71 1.035,0.495 4.77,1.17 3.78,0.63 5.355,2.025 1.575,1.395 1.575,4.95 0,3.555 -2.295,5.22 -2.25,1.665 -6.615,1.665 -2.745,0 -6.93,-0.765 l -1.395,-0.225 0.18,-4.095 q 5.4,0.72 7.785,0.72 2.385,0 3.375,-0.585 1.035,-0.585 1.035,-1.935 0,-1.35 -0.99,-1.845 -0.945,-0.54 -4.635,-1.125 -3.645,-0.63 -5.355,-1.935 -1.71,-1.305 -1.71,-4.77 0,-3.465 2.34,-5.175 2.385,-1.71 6.075,-1.71 2.88,0 7.065,0.72 l 1.395,0.27 -0.09,4.095 z"
       style="font-style:normal;font-variant:normal;font-weight:600;font-stretch:normal;font-size:45px;font-family:'Titillium Web';-inkscape-font-specification:'Titillium Web Semi-Bold'"
       id="path4224" />
    <path
       d="m 275.33477,42.301903 0,-22.5 4.905,0 0,22.5 -4.905,0 z m 0,-26.325 0,-5.175 4.905,0 0,5.175 -4.905,0 z"
       style="font-style:normal;font-variant:normal;font-weight:600;font-stretch:normal;font-size:45px;font-family:'Titillium Web';-inkscape-font-specification:'Titillium Web Semi-Bold'"
       id="path4226" />
    <path
       d="m 298.25032,23.986903 -6.21,0 0,9.9 q 0,2.745 0.405,3.645 0.405,0.9 2.07,0.9 l 3.69,-0.135 0.225,3.915 q -3.015,0.585 -4.59,0.585 -3.825,0 -5.265,-1.755 -1.395,-1.755 -1.395,-6.615 l 0,-10.44 -2.88,0 0,-4.185 2.88,0 0,-6.525 4.86,0 0,6.525 6.21,0 0,4.185 z"
       style="font-style:normal;font-variant:normal;font-weight:600;font-stretch:normal;font-size:45px;font-family:'Titillium Web';-inkscape-font-specification:'Titillium Web Semi-Bold'"
       id="path4228" />
    <path
       d="m 318.8793,26.731903 0,10.26 q 0.045,0.99 0.495,1.485 0.495,0.45 1.485,0.585 l -0.135,3.735 q -3.87,0 -5.985,-1.665 -3.6,1.665 -7.245,1.665 -6.705,0 -6.705,-7.155 0,-3.42 1.8,-4.95 1.845,-1.53 5.625,-1.845 l 5.805,-0.495 0,-1.62 q 0,-1.8 -0.81,-2.52 -0.765,-0.72 -2.295,-0.72 -2.88,0 -7.2,0.36 l -1.44,0.09 -0.18,-3.465 q 4.905,-1.17 9,-1.17 4.14,0 5.94,1.8 1.845,1.755 1.845,5.625 z m -10.08,5.58 q -3.105,0.27 -3.105,3.375 0,3.105 2.745,3.105 2.25,0 4.77,-0.72 l 0.81,-0.27 0,-5.985 -5.22,0.495 z m -3.015,-23.6700002 10.62,4.5450002 -1.17,3.195 -10.98,-3.51 1.53,-4.2300002 z"
       style="font-style:normal;font-variant:normal;font-weight:600;font-stretch:normal;font-size:45px;font-family:'Titillium Web';-inkscape-font-specification:'Titillium Web Semi-Bold'"
       id="path4230" />
    <path
       d="m 353.3725,10.441903 0,31.86 -4.86,0 0,-1.17 q -3.285,1.665 -6.03,1.665 -4.41,0 -6.48,-2.655 -2.025,-2.655 -2.025,-8.91 0,-6.255 2.25,-9.09 2.295,-2.835 7.11,-2.835 1.62,0 5.13,0.585 l 0,-9.45 4.905,0 z m -5.67,27.18 0.765,-0.315 0,-13.32 q -2.7,-0.45 -4.995,-0.45 -4.545,0 -4.545,7.56 0,4.14 1.035,5.76 1.08,1.575 3.375,1.575 2.295,0 4.365,-0.81 z"
       style="font-style:normal;font-variant:normal;font-weight:600;font-stretch:normal;font-size:45px;font-family:'Titillium Web';-inkscape-font-specification:'Titillium Web Semi-Bold'"
       id="path4232" />
    <path
       d="m 375.29032,38.251903 1.26,-0.135 0.09,3.645 q -5.13,1.035 -9.09,1.035 -4.995,0 -7.2,-2.745 -2.16,-2.745 -2.16,-8.775 0,-11.97 9.765,-11.97 9.45,0 9.45,10.305 l -0.315,3.51 -13.95,0 q 0.045,2.79 1.215,4.095 1.17,1.305 4.365,1.305 3.195,0 6.57,-0.27 z m -2.7,-8.91 q 0,-3.33 -1.08,-4.635 -1.035,-1.35 -3.555,-1.35 -2.52,0 -3.69,1.395 -1.125,1.395 -1.17,4.59 l 9.495,0 z"
       style="font-style:normal;font-variant:normal;font-weight:600;font-stretch:normal;font-size:45px;font-family:'Titillium Web';-inkscape-font-specification:'Titillium Web Semi-Bold'"
       id="path4234" />
    <path
       d="m 382.39188,42.301903 0,-31.86 4.905,0 0,31.86 -4.905,0 z"
       style="font-style:normal;font-variant:normal;font-weight:600;font-stretch:normal;font-size:45px;font-family:'Titillium Web';-inkscape-font-specification:'Titillium Web Semi-Bold'"
       id="path4236" />
    <path
       d="m 393.81766,42.301903 0,-31.86 4.905,0 0,31.86 -4.905,0 z"
       style="font-style:normal;font-variant:normal;font-weight:600;font-stretch:normal;font-size:45px;font-family:'Titillium Web';-inkscape-font-specification:'Titillium Web Semi-Bold'"
       id="path4238" />
    <path
       d="m 421.62344,26.731903 0,10.26 q 0.045,0.99 0.495,1.485 0.495,0.45 1.485,0.585 l -0.135,3.735 q -3.87,0 -5.985,-1.665 -3.6,1.665 -7.245,1.665 -6.705,0 -6.705,-7.155 0,-3.42 1.8,-4.95 1.845,-1.53 5.625,-1.845 l 5.805,-0.495 0,-1.62 q 0,-1.8 -0.81,-2.52 -0.765,-0.72 -2.295,-0.72 -2.88,0 -7.2,0.36 l -1.44,0.09 -0.18,-3.465 q 4.905,-1.17 9,-1.17 4.14,0 5.94,1.8 1.845,1.755 1.845,5.625 z m -10.08,5.58 q -3.105,0.27 -3.105,3.375 0,3.105 2.745,3.105 2.25,0 4.77,-0.72 l 0.81,-0.27 0,-5.985 -5.22,0.495 z"
       style="font-style:normal;font-variant:normal;font-weight:600;font-stretch:normal;font-size:45px;font-family:'Titillium Web';-inkscape-font-specification:'Titillium Web Semi-Bold'"
       id="path4240" />
    <path
       d="m 448.69164,42.796903 q -6.75,0 -9.18,-3.735 -2.385,-3.735 -2.385,-12.285 0,-8.55 2.43,-12.15 2.43,-3.645 9.135,-3.645 4.005,0 8.82,1.125 l -0.18,4.05 q -4.05,-0.72 -8.1,-0.72 -4.05,0 -5.49,2.43 -1.44,2.385 -1.44,9.045 0,6.615 1.395,9.045 1.395,2.385 5.445,2.385 4.05,0 8.19,-0.675 l 0.135,4.14 q -4.635,0.99 -8.775,0.99 z"
       style="font-style:normal;font-variant:normal;font-weight:600;font-stretch:normal;font-size:45px;font-family:'Titillium Web';-inkscape-font-specification:'Titillium Web Semi-Bold'"
       id="path4242" />
    <path
       d="m 478.92813,26.731903 0,10.26 q 0.045,0.99 0.495,1.485 0.495,0.45 1.485,0.585 l -0.135,3.735 q -3.87,0 -5.985,-1.665 -3.6,1.665 -7.245,1.665 -6.705,0 -6.705,-7.155 0,-3.42 1.8,-4.95 1.845,-1.53 5.625,-1.845 l 5.805,-0.495 0,-1.62 q 0,-1.8 -0.81,-2.52 -0.765,-0.72 -2.295,-0.72 -2.88,0 -7.2,0.36 l -1.44,0.09 -0.18,-3.465 q 4.905,-1.17 9,-1.17 4.14,0 5.94,1.8 1.845,1.755 1.845,5.625 z m -10.08,5.58 q -3.105,0.27 -3.105,3.375 0,3.105 2.745,3.105 2.25,0 4.77,-0.72 l 0.81,-0.27 0,-5.985 -5.22,0.495 z"
       style="font-style:normal;font-variant:normal;font-weight:600;font-stretch:normal;font-size:45px;font-family:'Titillium Web';-inkscape-font-specification:'Titillium Web Semi-Bold'"
       id="path4244" />
    <path
       d="m 485.39969,42.301903 0,-31.86 4.905,0 0,31.86 -4.905,0 z"
       style="font-style:normal;font-variant:normal;font-weight:600;font-stretch:normal;font-size:45px;font-family:'Titillium Web';-inkscape-font-specification:'Titillium Web Semi-Bold'"
       id="path4246" />
    <path
       d="m 513.20547,26.731903 0,10.26 q 0.045,0.99 0.495,1.485 0.495,0.45 1.485,0.585 l -0.135,3.735 q -3.87,0 -5.985,-1.665 -3.6,1.665 -7.245,1.665 -6.705,0 -6.705,-7.155 0,-3.42 1.8,-4.95 1.845,-1.53 5.625,-1.845 l 5.805,-0.495 0,-1.62 q 0,-1.8 -0.81,-2.52 -0.765,-0.72 -2.295,-0.72 -2.88,0 -7.2,0.36 l -1.44,0.09 -0.18,-3.465 q 4.905,-1.17 9,-1.17 4.14,0 5.94,1.8 1.845,1.755 1.845,5.625 z m -10.08,5.58 q -3.105,0.27 -3.105,3.375 0,3.105 2.745,3.105 2.25,0 4.77,-0.72 l 0.81,-0.27 0,-5.985 -5.22,0.495 z"
       style="font-style:normal;font-variant:normal;font-weight:600;font-stretch:normal;font-size:45px;font-family:'Titillium Web';-inkscape-font-specification:'Titillium Web Semi-Bold'"
       id="path4248" />
    <path
       d="m 529.89203,19.306903 q 4.635,0 6.66,2.61 2.07,2.565 2.07,9.135 0,6.57 -2.43,9.18 -2.43,2.565 -8.55,2.565 -2.115,0 -6.705,-0.405 l -1.53,-0.135 0,-31.815 4.86,0 0,10.215 q 3.105,-1.35 5.625,-1.35 z m -2.25,19.125 q 3.6,0 4.77,-1.665 1.215,-1.71 1.215,-5.76 0,-4.05 -1.035,-5.67 -0.99,-1.665 -3.285,-1.665 -2.16,0 -4.32,0.675 l -0.72,0.225 0,13.68 q 2.475,0.18 3.375,0.18 z"
       style="font-style:normal;font-variant:normal;font-weight:600;font-stretch:normal;font-size:45px;font-family:'Titillium Web';-inkscape-font-specification:'Titillium Web Semi-Bold'"
       id="path4250" />
    <path
       d="m 543.48907,42.301903 0,-22.5 4.86,0 0,2.7 q 3.825,-2.475 7.65,-3.195 l 0,4.905 q -3.87,0.765 -6.615,1.98 l -0.99,0.405 0,15.705 -4.905,0 z"
       style="font-style:normal;font-variant:normal;font-weight:600;font-stretch:normal;font-size:45px;font-family:'Titillium Web';-inkscape-font-specification:'Titillium Web Semi-Bold'"
       id="path4252" />
    <path
       d="m 559.74883,42.301903 0,-22.5 4.905,0 0,22.5 -4.905,0 z m 0,-26.325 0,-5.175 4.905,0 0,5.175 -4.905,0 z"
       style="font-style:normal;font-variant:normal;font-weight:600;font-stretch:normal;font-size:45px;font-family:'Titillium Web';-inkscape-font-specification:'Titillium Web Semi-Bold'"
       id="path4254" />
    <path
       d="m 587.20938,26.731903 0,10.26 q 0.045,0.99 0.495,1.485 0.495,0.45 1.485,0.585 l -0.135,3.735 q -3.87,0 -5.985,-1.665 -3.6,1.665 -7.245,1.665 -6.705,0 -6.705,-7.155 0,-3.42 1.8,-4.95 1.845,-1.53 5.625,-1.845 l 5.805,-0.495 0,-1.62 q 0,-1.8 -0.81,-2.52 -0.765,-0.72 -2.295,-0.72 -2.88,0 -7.2,0.36 l -1.44,0.09 -0.18,-3.465 q 4.905,-1.17 9,-1.17 4.14,0 5.94,1.8 1.845,1.755 1.845,5.625 z m -10.08,5.58 q -3.105,0.27 -3.105,3.375 0,3.105 2.745,3.105 2.25,0 4.77,-0.72 l 0.81,-0.27 0,-5.985 -5.22,0.495 z"
       style="font-style:normal;font-variant:normal;font-weight:600;font-stretch:normal;font-size:45px;font-family:'Titillium Web';-inkscape-font-specification:'Titillium Web Semi-Bold'"
       id="path4256" />
  </g>
  <g
     style="font-style:normal;font-weight:normal;font-size:40px;line-height:125%;font-family:sans-serif;letter-spacing:0px;word-spacing:0px;fill:#000000;fill-opacity:1;stroke:none;stroke-width:1px;stroke-linecap:butt;stroke-linejoin:miter;stroke-opacity:1"
     id="text4145">
    <path
       d="m 132.01657,71.196609 0,-17.3 1.925,0 0,17.3 -1.925,0 z"
       style="font-style:normal;font-variant:normal;font-weight:normal;font-stretch:normal;font-size:25px;font-family:'Titillium Web';-inkscape-font-specification:'Titillium Web'"
       id="path4169" />
    <path
       d="m 137.99391,71.196609 0,-17.95 1.875,0 0,17.95 -1.875,0 z"
       style="font-style:normal;font-variant:normal;font-weight:normal;font-stretch:normal;font-size:25px;font-family:'Titillium Web';-inkscape-font-specification:'Titillium Web'"
       id="path4171" />
    <path
       d="m 159.89821,70.921609 q -2.575,0.525 -4.625,0.525 -2.05,0 -3.325,-0.55 -1.25,-0.575 -1.95,-1.75 -0.675,-1.2 -0.95,-2.725 -0.25,-1.55 -0.25,-3.85 0,-2.3 0.25,-3.85 0.275,-1.575 0.95,-2.775 0.7,-1.2 1.95,-1.75 1.25,-0.55 3.25,-0.55 2,0 4.7,0.55 l -0.075,1.625 q -2.525,-0.45 -4.5,-0.45 -2.75,0 -3.65,1.65 -0.875,1.625 -0.875,5.575 0,1.975 0.15,3.175 0.175,1.2 0.65,2.175 0.475,0.95 1.375,1.375 0.925,0.4 2.675,0.4 1.775,0 4.175,-0.45 l 0.075,1.65 z"
       style="font-style:normal;font-variant:normal;font-weight:normal;font-stretch:normal;font-size:25px;font-family:'Titillium Web';-inkscape-font-specification:'Titillium Web'"
       id="path4173" />
    <path
       d="m 171.57126,62.471609 0,6.4 q 0.075,0.925 1.45,1.1 l -0.075,1.475 q -1.975,0 -2.975,-1 -2.25,1 -4.5,1 -1.725,0 -2.625,-0.975 -0.9,-0.975 -0.9,-2.8 0,-1.825 0.925,-2.675 0.925,-0.875 2.9,-1.075 l 3.925,-0.375 0,-1.075 q 0,-1.275 -0.55,-1.825 -0.55,-0.55 -1.5,-0.55 -2,0 -4.15,0.25 l -0.775,0.075 -0.075,-1.425 q 2.75,-0.55 4.875,-0.55 2.125,0 3.075,0.975 0.975,0.975 0.975,3.05 z m -7.7,5.1 q 0,2.3 1.9,2.3 1.7,0 3.35,-0.575 l 0.575,-0.2 0,-4.125 -3.7,0.35 q -1.125,0.1 -1.625,0.65 -0.5,0.55 -0.5,1.6 z"
       style="font-style:normal;font-variant:normal;font-weight:normal;font-stretch:normal;font-size:25px;font-family:'Titillium Web';-inkscape-font-specification:'Titillium Web'"
       id="path4175" />
    <path
       d="m 177.17009,71.196609 -1.875,0 0,-12.5 1.85,0 0,0.875 q 1.875,-1.125 3.65,-1.125 2.325,0 3.25,1.275 0.825,-0.5 2.125,-0.875 1.325,-0.4 2.325,-0.4 2.5,0 3.35,1.35 0.875,1.325 0.875,4.8 l 0,6.6 -1.875,0 0,-6.55 q 0,-2.6 -0.5,-3.55 -0.5,-0.975 -2.125,-0.975 -0.825,0 -1.7,0.25 -0.875,0.225 -1.35,0.45 l -0.475,0.225 q 0.325,0.825 0.325,3.65 l 0,6.5 -1.875,0 0,-6.45 q 0,-2.7 -0.5,-3.65 -0.475,-0.975 -2.125,-0.975 -0.8,0 -1.65,0.25 -0.825,0.225 -1.275,0.45 l -0.425,0.225 0,10.15 z"
       style="font-style:normal;font-variant:normal;font-weight:normal;font-stretch:normal;font-size:25px;font-family:'Titillium Web';-inkscape-font-specification:'Titillium Web'"
       id="path4177" />
    <path
       d="m 196.19352,76.746609 0,-18.05 1.85,0 0,0.9 q 1.9,-1.15 3.75,-1.15 2.375,0 3.45,1.525 1.075,1.5 1.075,4.975 0,3.475 -1.275,5 -1.25,1.5 -4.175,1.5 -1.525,0 -2.8,-0.275 l 0,5.575 -1.875,0 z m 5.325,-16.625 q -0.75,0 -1.625,0.25 -0.85,0.25 -1.35,0.5 l -0.475,0.25 0,8.425 q 1.775,0.275 2.7,0.275 2.025,0 2.825,-1.15 0.825,-1.15 0.825,-3.75 0,-2.6 -0.75,-3.7 -0.725,-1.1 -2.15,-1.1 z"
       style="font-style:normal;font-variant:normal;font-weight:normal;font-stretch:normal;font-size:25px;font-family:'Titillium Web';-inkscape-font-specification:'Titillium Web'"
       id="path4179" />
    <path
       d="m 217.17712,58.696609 1.875,0 0,12.5 -1.875,0 0,-0.875 q -1.875,1.125 -3.7,1.125 -2.55,0 -3.4,-1.325 -0.825,-1.325 -0.825,-4.9 l 0,-6.525 1.875,0 0,6.5 q 0,2.725 0.475,3.65 0.475,0.925 2.15,0.925 0.825,0 1.675,-0.225 0.85,-0.25 1.3,-0.475 l 0.45,-0.225 0,-10.15 z"
       style="font-style:normal;font-variant:normal;font-weight:normal;font-stretch:normal;font-size:25px;font-family:'Titillium Web';-inkscape-font-specification:'Titillium Web'"
       id="path4181" />
    <path
       d="m 226.58337,60.121609 q -2.725,0 -2.725,1.9 0,0.875 0.625,1.25 0.625,0.35 2.85,0.75 2.225,0.375 3.15,1.075 0.925,0.7 0.925,2.625 0,1.925 -1.25,2.825 -1.225,0.9 -3.6,0.9 -1.55,0 -3.65,-0.35 l -0.75,-0.125 0.1,-1.625 q 2.85,0.425 4.3,0.425 1.45,0 2.2,-0.45 0.775,-0.475 0.775,-1.55 0,-1.1 -0.65,-1.475 -0.65,-0.4 -2.85,-0.75 -2.2,-0.35 -3.125,-1.025 -0.925,-0.675 -0.925,-2.5 0,-1.825 1.275,-2.7 1.3,-0.875 3.225,-0.875 1.525,0 3.825,0.35 l 0.7,0.125 -0.05,1.6 q -2.775,-0.4 -4.375,-0.4 z"
       style="font-style:normal;font-variant:normal;font-weight:normal;font-stretch:normal;font-size:25px;font-family:'Titillium Web';-inkscape-font-specification:'Titillium Web'"
       id="path4183" />
    <path
       d="m 239.79704,76.746609 0,-18.05 1.85,0 0,0.9 q 1.9,-1.15 3.75,-1.15 2.375,0 3.45,1.525 1.075,1.5 1.075,4.975 0,3.475 -1.275,5 -1.25,1.5 -4.175,1.5 -1.525,0 -2.8,-0.275 l 0,5.575 -1.875,0 z m 5.325,-16.625 q -0.75,0 -1.625,0.25 -0.85,0.25 -1.35,0.5 l -0.475,0.25 0,8.425 q 1.775,0.275 2.7,0.275 2.025,0 2.825,-1.15 0.825,-1.15 0.825,-3.75 0,-2.6 -0.75,-3.7 -0.725,-1.1 -2.15,-1.1 z"
       style="font-style:normal;font-variant:normal;font-weight:normal;font-stretch:normal;font-size:25px;font-family:'Titillium Web';-inkscape-font-specification:'Titillium Web'"
       id="path4185" />
    <path
       d="m 261.48063,69.646609 0.725,-0.075 0.05,1.475 q -2.85,0.4 -4.875,0.4 -2.7,0 -3.825,-1.55 -1.125,-1.575 -1.125,-4.875 0,-6.575 5.225,-6.575 2.525,0 3.775,1.425 1.25,1.4 1.25,4.425 l -0.1,1.425 -8.25,0 q 0,2.075 0.75,3.075 0.75,1 2.6,1 1.875,0 3.8,-0.15 z m -0.675,-5.425 q 0,-2.3 -0.75,-3.25 -0.725,-0.95 -2.4,-0.95 -1.65,0 -2.5,1 -0.825,1 -0.85,3.2 l 6.5,0 z"
       style="font-style:normal;font-variant:normal;font-weight:normal;font-stretch:normal;font-size:25px;font-family:'Titillium Web';-inkscape-font-specification:'Titillium Web'"
       id="path4187" />
    <path
       d="m 265.62712,71.196609 0,-12.5 1.85,0 0,1.7 q 2.175,-1.5 4.575,-1.975 l 0,1.9 q -1.05,0.2 -2.2,0.625 -1.125,0.425 -1.725,0.75 l -0.625,0.325 0,9.175 -1.875,0 z"
       style="font-style:normal;font-variant:normal;font-weight:normal;font-stretch:normal;font-size:25px;font-family:'Titillium Web';-inkscape-font-specification:'Titillium Web'"
       id="path4189" />
    <path
       d="m 288.28727,69.646609 0.725,-0.075 0.05,1.475 q -2.85,0.4 -4.875,0.4 -2.7,0 -3.825,-1.55 -1.125,-1.575 -1.125,-4.875 0,-6.575 5.225,-6.575 2.525,0 3.775,1.425 1.25,1.4 1.25,4.425 l -0.1,1.425 -8.25,0 q 0,2.075 0.75,3.075 0.75,1 2.6,1 1.875,0 3.8,-0.15 z m -0.675,-5.425 q 0,-2.3 -0.75,-3.25 -0.725,-0.95 -2.4,-0.95 -1.65,0 -2.5,1 -0.825,1 -0.85,3.2 l 6.5,0 z"
       style="font-style:normal;font-variant:normal;font-weight:normal;font-stretch:normal;font-size:25px;font-family:'Titillium Web';-inkscape-font-specification:'Titillium Web'"
       id="path4191" />
    <path
       d="m 297.10876,58.446609 q 0.825,0 2.8,0.3 l 0.6,0.075 -0.075,1.525 q -2,-0.225 -2.95,-0.225 -2.125,0 -2.9,1.025 -0.75,1 -0.75,3.75 0,2.725 0.7,3.8 0.725,1.075 2.975,1.075 l 2.95,-0.225 0.075,1.55 q -2.325,0.35 -3.475,0.35 -2.925,0 -4.05,-1.5 -1.1,-1.5 -1.1,-5.05 0,-3.575 1.2,-5 1.2,-1.45 4,-1.45 z"
       style="font-style:normal;font-variant:normal;font-weight:normal;font-stretch:normal;font-size:25px;font-family:'Titillium Web';-inkscape-font-specification:'Titillium Web'"
       id="path4193" />
    <path
       d="m 307.85095,58.446609 q 0.825,0 2.8,0.3 l 0.6,0.075 -0.075,1.525 q -2,-0.225 -2.95,-0.225 -2.125,0 -2.9,1.025 -0.75,1 -0.75,3.75 0,2.725 0.7,3.8 0.725,1.075 2.975,1.075 l 2.95,-0.225 0.075,1.55 q -2.325,0.35 -3.475,0.35 -2.925,0 -4.05,-1.5 -1.1,-1.5 -1.1,-5.05 0,-3.575 1.2,-5 1.2,-1.45 4,-1.45 z"
       style="font-style:normal;font-variant:normal;font-weight:normal;font-stretch:normal;font-size:25px;font-family:'Titillium Web';-inkscape-font-specification:'Titillium Web'"
       id="path4195" />
    <path
       d="m 322.41813,69.646609 0.725,-0.075 0.05,1.475 q -2.85,0.4 -4.875,0.4 -2.7,0 -3.825,-1.55 -1.125,-1.575 -1.125,-4.875 0,-6.575 5.225,-6.575 2.525,0 3.775,1.425 1.25,1.4 1.25,4.425 l -0.1,1.425 -8.25,0 q 0,2.075 0.75,3.075 0.75,1 2.6,1 1.875,0 3.8,-0.15 z m -0.675,-5.425 q 0,-2.3 -0.75,-3.25 -0.725,-0.95 -2.4,-0.95 -1.65,0 -2.5,1 -0.825,1 -0.85,3.2 l 6.5,0 z"
       style="font-style:normal;font-variant:normal;font-weight:normal;font-stretch:normal;font-size:25px;font-family:'Titillium Web';-inkscape-font-specification:'Titillium Web'"
       id="path4197" />
    <path
       d="m 326.71462,71.196609 0,-17.95 1.875,0 0,17.95 -1.875,0 z"
       style="font-style:normal;font-variant:normal;font-weight:normal;font-stretch:normal;font-size:25px;font-family:'Titillium Web';-inkscape-font-specification:'Titillium Web'"
       id="path4199" />
    <path
       d="m 332.47634,71.196609 0,-17.95 1.875,0 0,17.95 -1.875,0 z"
       style="font-style:normal;font-variant:normal;font-weight:normal;font-stretch:normal;font-size:25px;font-family:'Titillium Web';-inkscape-font-specification:'Titillium Web'"
       id="path4201" />
    <path
       d="m 346.58806,69.646609 0.725,-0.075 0.05,1.475 q -2.85,0.4 -4.875,0.4 -2.7,0 -3.825,-1.55 -1.125,-1.575 -1.125,-4.875 0,-6.575 5.225,-6.575 2.525,0 3.775,1.425 1.25,1.4 1.25,4.425 l -0.1,1.425 -8.25,0 q 0,2.075 0.75,3.075 0.75,1 2.6,1 1.875,0 3.8,-0.15 z m -0.675,-5.425 q 0,-2.3 -0.75,-3.25 -0.725,-0.95 -2.4,-0.95 -1.65,0 -2.5,1 -0.825,1 -0.85,3.2 l 6.5,0 z"
       style="font-style:normal;font-variant:normal;font-weight:normal;font-stretch:normal;font-size:25px;font-family:'Titillium Web';-inkscape-font-specification:'Titillium Web'"
       id="path4203" />
    <path
       d="m 352.60954,71.196609 -1.875,0 0,-12.5 1.85,0 0,0.875 q 2.025,-1.125 3.875,-1.125 2.5,0 3.35,1.35 0.875,1.35 0.875,4.8 l 0,6.6 -1.85,0 0,-6.55 q 0,-2.6 -0.525,-3.55 -0.5,-0.975 -2.175,-0.975 -0.8,0 -1.7,0.25 -0.875,0.225 -1.35,0.45 l -0.475,0.225 0,10.15 z"
       style="font-style:normal;font-variant:normal;font-weight:normal;font-stretch:normal;font-size:25px;font-family:'Titillium Web';-inkscape-font-specification:'Titillium Web'"
       id="path4205" />
    <path
       d="m 363.41227,60.371609 0,-1.675 9.275,0 0,1.675 -7,9.15 7,0 0,1.675 -9.275,0 0,-1.675 7,-9.15 -7,0 z"
       style="font-style:normal;font-variant:normal;font-weight:normal;font-stretch:normal;font-size:25px;font-family:'Titillium Web';-inkscape-font-specification:'Titillium Web'"
       id="path4207" />
    <path
       d="m 384.36423,62.471609 0,6.4 q 0.075,0.925 1.45,1.1 l -0.075,1.475 q -1.975,0 -2.975,-1 -2.25,1 -4.5,1 -1.725,0 -2.625,-0.975 -0.9,-0.975 -0.9,-2.8 0,-1.825 0.925,-2.675 0.925,-0.875 2.9,-1.075 l 3.925,-0.375 0,-1.075 q 0,-1.275 -0.55,-1.825 -0.55,-0.55 -1.5,-0.55 -2,0 -4.15,0.25 l -0.775,0.075 -0.075,-1.425 q 2.75,-0.55 4.875,-0.55 2.125,0 3.075,0.975 0.975,0.975 0.975,3.05 z m -7.7,5.1 q 0,2.3 1.9,2.3 1.7,0 3.35,-0.575 l 0.575,-0.2 0,-4.125 -3.7,0.35 q -1.125,0.1 -1.625,0.65 -0.5,0.55 -0.5,1.6 z"
       style="font-style:normal;font-variant:normal;font-weight:normal;font-stretch:normal;font-size:25px;font-family:'Titillium Web';-inkscape-font-specification:'Titillium Web'"
       id="path4209" />
  </g>
</svg>
