<?xml version="1.0" encoding="UTF-8" standalone="no"?>
<svg
   xmlns:dc="http://purl.org/dc/elements/1.1/"
   xmlns:cc="http://creativecommons.org/ns#"
   xmlns:rdf="http://www.w3.org/1999/02/22-rdf-syntax-ns#"
   xmlns:svg="http://www.w3.org/2000/svg"
   xmlns="http://www.w3.org/2000/svg"
   xmlns:sodipodi="http://sodipodi.sourceforge.net/DTD/sodipodi-0.dtd"
   xmlns:inkscape="http://www.inkscape.org/namespaces/inkscape"
   width="170mm"
   height="112mm"
   viewBox="0 0 602.36209 396.85016"
   version="1.1"
   id="svg2"
   inkscape:version="0.91 r13725"
   sodipodi:docname="logo_back.svg">
  <metadata
     id="metadata16">
    <rdf:RDF>
      <cc:Work
         rdf:about="">
        <dc:format>image/svg+xml</dc:format>
        <dc:type
           rdf:resource="http://purl.org/dc/dcmitype/StillImage" />
        <dc:title>button-icon</dc:title>
      </cc:Work>
    </rdf:RDF>
  </metadata>
  <sodipodi:namedview
     pagecolor="#ffffff"
     bordercolor="#666666"
     borderopacity="1"
     objecttolerance="10"
     gridtolerance="10"
     guidetolerance="10"
     inkscape:pageopacity="0"
     inkscape:pageshadow="2"
     inkscape:window-width="1920"
     inkscape:window-height="1004"
     id="namedview14"
     showgrid="false"
     showguides="true"
     inkscape:guide-bbox="true"
     inkscape:zoom="0.42354619"
     inkscape:cx="-531.2532"
     inkscape:cy="239.25693"
     inkscape:window-x="0"
     inkscape:window-y="24"
     inkscape:window-maximized="1"
     inkscape:current-layer="svg2"
     units="mm"
     width="209mm">
    <sodipodi:guide
       position="-300.50847,395.66949"
       orientation="0,1"
       id="guide4225" />
  </sodipodi:namedview>
  <!-- Generator: Sketch 48.2 (47327) - http://www.bohemiancoding.com/sketch -->
  <title
     id="title4">button-icon</title>
  <desc
     id="desc6">Created with Sketch.</desc>
  <defs
     id="defs8" />
  <g
     id="g4219"
     transform="matrix(5.5661307,0,0,5.5661307,-30.612731,-84.164119)"
     style="fill:#f4f6f6;fill-opacity:0.45490196">
    <path
       id="path4142"
       d="m 5.39492,80.275424 0,-5.85 34.65,0 34.65,0 0,5.85 0,5.85 -34.65,0 -34.65,0 0,-5.85 z m 0,-14.4 0,-5.85 34.65,0 34.65,0 0,5.85 0,5.85 -34.65,0 -34.65,0 0,-5.85 z m 0,-14.85 0,-5.4 34.65,0 34.65,0 0,5.4 0,5.4 -34.65,0 -34.65,0 0,-5.4 z m 0,-14.85 0,-5.85 34.65,0 34.65,0 0,5.85 0,5.85 -34.65,0 -34.65,0 0,-5.85 z m 0,-14.4 0,-5.85 34.65,0 34.65,0 0,5.85 0,5.85 -34.65,0 -34.65,0 0,-5.85 z"
       style="fill:#f4f6f6;fill-opacity:0.45490196"
       inkscape:connector-curvature="0" />
    <path
       id="path4140"
       d="m 78.29492,72.625424 0,-12.6 12.81294,0 12.81295,0 -12.57589,12.6 c -6.91674,6.93 -12.68256,12.6 -12.81295,12.6 -0.13038,0 -0.23705,-5.67 -0.23705,-12.6 z"
       style="fill:#f4f6f6;fill-opacity:0.45490196"
       inkscape:connector-curvature="0" />
    <rect
       style="opacity:1;fill:#f4f6f6;fill-opacity:0.45490196;stroke:none;stroke-width:4;stroke-linecap:round;stroke-linejoin:round;stroke-miterlimit:4;stroke-dasharray:none;stroke-opacity:1"
       id="rect4149"
       width="35.389828"
       height="10.922033"
       x="78.02034"
       y="45.680759" />
    <rect
       y="30.513073"
       x="78.02034"
       height="10.922033"
       width="35.389828"
       id="rect4151"
       style="opacity:1;fill:#f4f6f6;fill-opacity:0.45490196;stroke:none;stroke-width:4;stroke-linecap:round;stroke-linejoin:round;stroke-miterlimit:4;stroke-dasharray:none;stroke-opacity:1" />
  </g>
</svg>
