<?xml version="1.0" encoding="UTF-8" standalone="no"?>
<svg
   xmlns:dc="http://purl.org/dc/elements/1.1/"
   xmlns:cc="http://creativecommons.org/ns#"
   xmlns:rdf="http://www.w3.org/1999/02/22-rdf-syntax-ns#"
   xmlns:svg="http://www.w3.org/2000/svg"
   xmlns="http://www.w3.org/2000/svg"
   viewBox="0 0 115.2 115.2"
   height="115.2"
   width="115.2"
   version="1.1"
   id="svg2">
  <metadata
     id="metadata8">
    <rdf:RDF>
      <cc:Work
         rdf:about="">
        <dc:format>image/svg+xml</dc:format>
        <dc:type
           rdf:resource="http://purl.org/dc/dcmitype/StillImage" />
        <dc:title></dc:title>
      </cc:Work>
    </rdf:RDF>
  </metadata>
  <defs
     id="defs6" />
  <path
     style="fill:#b61918"
     d="m 5.39492,80.275424 0,-5.85 34.65,0 34.65,0 0,5.85 0,5.85 -34.65,0 -34.65,0 0,-5.85 z m 0,-14.4 0,-5.85 34.65,0 34.65,0 0,5.85 0,5.85 -34.65,0 -34.65,0 0,-5.85 z m 0,-14.85 0,-5.4 34.65,0 34.65,0 0,5.4 0,5.4 -34.65,0 -34.65,0 0,-5.4 z m 0,-14.85 0,-5.85 34.65,0 34.65,0 0,5.85 0,5.85 -34.65,0 -34.65,0 0,-5.85 z m 0,-14.4 0,-5.85 34.65,0 34.65,0 0,5.85 0,5.85 -34.65,0 -34.65,0 0,-5.85 z"
     id="path4142" />
  <path
     style="fill:#000000"
     d="m 78.29492,72.625424 0,-12.6 12.81294,0 12.81295,0 -12.57589,12.6 c -6.91674,6.93 -12.68256,12.6 -12.81295,12.6 -0.13038,0 -0.23705,-5.67 -0.23705,-12.6 z"
     id="path4140" />
  <rect
     y="45.680759"
     x="78.02034"
     height="10.922033"
     width="35.389828"
     id="rect4149"
     style="opacity:1;fill:#9e9e9d;fill-opacity:1;stroke:none;stroke-width:4;stroke-linecap:round;stroke-linejoin:round;stroke-miterlimit:4;stroke-dasharray:none;stroke-opacity:1" />
  <rect
     style="opacity:1;fill:#9e9e9d;fill-opacity:1;stroke:none;stroke-width:4;stroke-linecap:round;stroke-linejoin:round;stroke-miterlimit:4;stroke-dasharray:none;stroke-opacity:1"
     id="rect4151"
     width="35.389828"
     height="10.922033"
     x="78.02034"
     y="30.513073" />
</svg>
