<?xml version="1.0" encoding="UTF-8" standalone="no"?>
<svg
   xmlns:dc="http://purl.org/dc/elements/1.1/"
   xmlns:cc="http://creativecommons.org/ns#"
   xmlns:rdf="http://www.w3.org/1999/02/22-rdf-syntax-ns#"
   xmlns:svg="http://www.w3.org/2000/svg"
   xmlns="http://www.w3.org/2000/svg"
   xmlns:sodipodi="http://sodipodi.sourceforge.net/DTD/sodipodi-0.dtd"
   xmlns:inkscape="http://www.inkscape.org/namespaces/inkscape"
   viewBox="0 0 593.20002 80.2"
   height="80.199997"
   width="593.20001"
   version="1.1"
   id="svg2"
   inkscape:version="0.91 r13725"
   sodipodi:docname="logo_header.svg">
  <sodipodi:namedview
     pagecolor="#ffffff"
     bordercolor="#666666"
     borderopacity="1"
     objecttolerance="10"
     gridtolerance="10"
     guidetolerance="10"
     inkscape:pageopacity="0"
     inkscape:pageshadow="2"
     inkscape:window-width="1808"
     inkscape:window-height="925"
     id="namedview9"
     showgrid="false"
     inkscape:zoom="1.4485868"
     inkscape:cx="327.10891"
     inkscape:cy="51.917269"
     inkscape:window-x="0"
     inkscape:window-y="24"
     inkscape:window-maximized="0"
     inkscape:current-layer="svg2" />
  <metadata
     id="metadata8">
    <rdf:RDF>
      <cc:Work
         rdf:about="">
        <dc:format>image/svg+xml</dc:format>
        <dc:type
           rdf:resource="http://purl.org/dc/dcmitype/StillImage" />
        <dc:title></dc:title>
      </cc:Work>
    </rdf:RDF>
  </metadata>
  <defs
     id="defs6" />
  <path
     style="fill:#b61918"
     d="m 5.39492,69.275586 0,-5.85 34.65,0 34.65,0 0,5.85 0,5.85 -34.65,0 -34.65,0 0,-5.85 z m 0,-14.4 0,-5.85 34.65,0 34.65,0 0,5.85 0,5.85 -34.65,0 -34.65,0 0,-5.85 z m 0,-14.85 0,-5.4 34.65,0 34.65,0 0,5.4 0,5.4 -34.65,0 -34.65,0 0,-5.4 z m 0,-14.85 0,-5.85 34.65,0 34.65,0 0,5.85 0,5.85 -34.65,0 -34.65,0 0,-5.85 z m 0,-14.399998 0,-5.8499994 34.65,0 34.65,0 0,5.8499994 0,5.849998 -34.65,0 -34.65,0 0,-5.849998 z"
     id="path4142"
     inkscape:connector-curvature="0" />
  <path
     style="fill:#000000"
     d="m 78.29492,61.625586 0,-12.6 12.81294,0 12.81295,0 -12.57589,12.6 c -6.91674,6.93 -12.68256,12.6 -12.81295,12.6 -0.13038,0 -0.23705,-5.67 -0.23705,-12.6 z"
     id="path4140"
     inkscape:connector-curvature="0" />
  <rect
     y="34.680965"
     x="78.02034"
     height="10.922033"
     width="35.389828"
     id="rect4149"
     style="opacity:1;fill:#9e9e9d;fill-opacity:1;stroke:none;stroke-width:4;stroke-linecap:round;stroke-linejoin:round;stroke-miterlimit:4;stroke-dasharray:none;stroke-opacity:1" />
  <rect
     style="opacity:1;fill:#9e9e9d;fill-opacity:1;stroke:none;stroke-width:4;stroke-linecap:round;stroke-linejoin:round;stroke-miterlimit:4;stroke-dasharray:none;stroke-opacity:1"
     id="rect4151"
     width="35.389828"
     height="10.922033"
     x="78.02034"
     y="19.513275" />
  <text
     xml:space="preserve"
     style="font-style:normal;font-variant:normal;font-weight:normal;font-stretch:normal;font-size:40px;line-height:125%;font-family:'Titillium Web';-inkscape-font-specification:'Titillium Web';letter-spacing:0px;word-spacing:0px;fill:#000000;fill-opacity:1;stroke:none;stroke-width:1px;stroke-linecap:butt;stroke-linejoin:miter;stroke-opacity:1"
     x="137.16611"
     y="-4.2472734"
     id="text4137"
     sodipodi:linespacing="125%"><tspan
       sodipodi:role="line"
       id="tspan4139"
       x="137.16611"
       y="-4.2472734"
       style="font-style:normal;font-variant:normal;font-weight:normal;font-stretch:normal;font-family:'Titillium Web';-inkscape-font-specification:'Titillium Web'" /></text>
  <text
     xml:space="preserve"
     style="font-style:normal;font-weight:normal;font-size:40px;line-height:125%;font-family:sans-serif;letter-spacing:0px;word-spacing:0px;fill:#000000;fill-opacity:1;stroke:none;stroke-width:1px;stroke-linecap:butt;stroke-linejoin:miter;stroke-opacity:1"
     x="125.93899"
     y="42.301903"
     id="text4141"
     sodipodi:linespacing="125%"><tspan
       sodipodi:role="line"
       id="tspan4143"
       x="125.93899"
       y="42.301903"
       style="font-style:normal;font-variant:normal;font-weight:600;font-stretch:normal;font-size:45px;font-family:'Titillium Web';-inkscape-font-specification:'Titillium Web Semi-Bold'">Università della Calabria</tspan></text>
  <text
     xml:space="preserve"
     style="font-style:normal;font-weight:normal;font-size:40px;line-height:125%;font-family:sans-serif;letter-spacing:0px;word-spacing:0px;fill:#000000;fill-opacity:1;stroke:none;stroke-width:1px;stroke-linecap:butt;stroke-linejoin:miter;stroke-opacity:1"
     x="129.89157"
     y="71.196609"
     id="text4145"
     sodipodi:linespacing="125%"><tspan
       sodipodi:role="line"
       id="tspan4147"
       x="129.89157"
       y="71.196609"
       style="font-style:normal;font-variant:normal;font-weight:normal;font-stretch:normal;font-size:25px;font-family:'Titillium Web';-inkscape-font-specification:'Titillium Web'">Il Campus per eccellenza</tspan></text>
</svg>
