<?xml version="1.0" encoding="UTF-8"?>
<svg width="26px" height="26px" viewBox="0 0 26 26" version="1.1" xmlns="http://www.w3.org/2000/svg" xmlns:xlink="http://www.w3.org/1999/xlink">
    <!-- Generator: Sketch 51.2 (57519) - http://www.bohemiancoding.com/sketch -->
    <title>buildingAndKey_6</title>
    <desc>Created with Sketch.</desc>
    <defs>
        <filter x="-18.9%" y="-9.1%" width="142.0%" height="136.4%" filterUnits="objectBoundingBox" id="filter-1">
            <feOffset dx="0" dy="2" in="SourceAlpha" result="shadowOffsetOuter1"></feOffset>
            <feGaussianBlur stdDeviation="1" in="shadowOffsetOuter1" result="shadowBlurOuter1"></feGaussianBlur>
            <feColorMatrix values="0 0 0 0 0   0 0 0 0 0   0 0 0 0 0  0 0 0 0.150758605 0" type="matrix" in="shadowBlurOuter1" result="shadowMatrixOuter1"></feColorMatrix>
            <feMerge>
                <feMergeNode in="shadowMatrixOuter1"></feMergeNode>
                <feMergeNode in="SourceGraphic"></feMergeNode>
            </feMerge>
        </filter>
    </defs>
    <g id="GSK-demo" stroke="none" stroke-width="1" fill="none" fill-rule="evenodd">
        <g id="product-returning---expanded" transform="translate(-670.000000, -203.000000)" fill="#FFFFFF" fill-rule="nonzero">
            <g id="CTA---level2" transform="translate(653.000000, 184.000000)">
                <g id="CTA">
                    <g id="buildingAndKey_6" filter="url(#filter-1)" transform="translate(19.000000, 19.000000)">
                        <path d="M1.31596755,9.67999637 L19.7979454,9.67999637 C20.3720108,9.68136928 20.8809957,9.29354497 21.0566479,8.72091999 C21.2323,8.148295 21.0342742,7.52239459 20.5669366,7.17308946 L11.3259477,0.257269159 C10.8668694,-0.0857563863 10.2506147,-0.0857563863 9.79153641,0.257269159 L0.550547502,7.17308946 C0.0853717401,7.52284698 -0.111591208,8.14690566 0.0628619752,8.71827545 C0.237315158,9.28964523 0.743410491,9.67805821 1.31596755,9.67999637 Z M10.5569565,3.07722763 L15.6756287,6.90867938 L5.43471309,6.90867938 L10.5569565,3.07722763 Z" id="Shape"></path>
                        <path d="M20.3442118,20.0225092 L19.6302963,20.0225092 L19.6302963,19.1319201 C19.6302963,18.7008825 19.2829641,18.3514576 18.8545082,18.3514576 L17.8883425,18.3514576 L17.8883425,11.8875044 C17.8883425,11.154344 17.2975582,10.56 16.5687887,10.56 C15.8400193,10.56 15.2492349,11.154344 15.2492349,11.8875044 L15.2492349,18.3514576 L5.87076507,18.3514576 L5.87076507,11.8875044 C5.87076507,11.154344 5.27998071,10.56 4.55121127,10.56 C3.82244183,10.56 3.23165746,11.154344 3.23165746,11.8875044 L3.23165746,18.3514576 L2.26668169,18.3514576 C2.0607238,18.3511398 1.86309322,18.4332265 1.71734727,18.5796261 C1.57160132,18.7260257 1.48970342,18.924721 1.48970366,19.1319201 L1.48970366,20.0225092 L0.775788169,20.0225092 C0.347332194,20.0225092 0,20.3719341 0,20.8029716 L0,22 L21.12,22 L21.12,20.8017746 C21.1193436,20.3712046 20.7722036,20.0225086 20.3442118,20.0225092 Z" id="Shape"></path>
                        <path d="M12.3199985,12.2950044 C12.3210937,11.475888 11.7393283,10.7679381 10.9253928,10.5979098 C10.1114573,10.4278815 9.28777907,10.8422392 8.95087482,11.5912063 C8.61397058,12.3401734 8.85590745,13.2190766 9.53084489,13.6981096 L8.88561989,16.72 L12.2345302,16.72 L11.590509,13.6981096 C12.0486789,13.3730691 12.3201266,12.8509646 12.3199985,12.2950044 Z" id="Shape"></path>
                    </g>
                </g>
            </g>
        </g>
    </g>
</svg>