<?xml version="1.0" encoding="UTF-8"?>
<svg width="206px" height="206px" viewBox="0 0 206 206" version="1.1" xmlns="http://www.w3.org/2000/svg" xmlns:xlink="http://www.w3.org/1999/xlink">
    <!-- Generator: Sketch 48.2 (47327) - http://www.bohemiancoding.com/sketch -->
    <title>Icon</title>
    <desc>Created with Sketch.</desc>
    <defs></defs>
    <g id="Icon---Hourglass" stroke="none" stroke-width="1" fill="none" fill-rule="evenodd">
        <g id="Icon">
            <g fill="#F6FAFC" id="Oval-3">
                <circle cx="103" cy="103" r="103"></circle>
            </g>
            <g id="hourglass\" transform="translate(73.000000, 55.000000)" fill-rule="nonzero">
                <path d="M7.47826087,8.46428571 L62.9982613,8.46428571 L62.9982613,10.7859204 C62.9982613,24.5968606 55.3365013,37.170834 43.2021956,43.2888056 C39.4778047,45.1646864 37.058589,49.0297438 37.058589,53.2718346 L37.058589,60.2367386 C37.058589,64.4788295 39.4741641,68.3476015 43.2021956,70.2197677 C55.3365013,76.3340247 62.9982613,88.9117126 62.9982613,102.722653 L62.9982613,105.044288 L7.47826087,105.044288 L7.47826087,102.722653 C7.47826087,88.9117126 15.1400209,76.3377393 27.2743266,70.2197677 C31.0023581,68.3438868 33.4179332,64.4751149 33.4179332,60.2367386 L33.4179332,53.2718346 C33.4179332,49.0297438 31.0023581,45.1646864 27.2743266,43.2888056 C15.1400209,37.1745486 7.47826087,24.5968606 7.47826087,10.7859204 L7.47826087,8.46428571 Z" id="Shape" stroke="#CBF1F2" fill="#CBF1F2"></path>
                <path d="M0,0 L0,5.62946429 C0,19.8261071 8.08695652,32.7972589 20.8695652,39.0814732 C23.2417391,40.2489375 24.7826087,42.6159107 24.7826087,45.2522321 L24.7826087,51.7477679 C24.7826087,54.3840893 23.2417391,56.7510625 20.8695652,57.9185268 C8.08695652,64.2027411 0,77.1704286 0,91.3705357 L0,97 L60,97 L60,91.3705357 C60,77.1738929 51.9130435,64.2027411 39.1304348,57.9185268 C36.7582609,56.7510625 35.2173913,54.3840893 35.2173913,51.7477679 L35.2173913,45.2522321 C35.2173913,42.6159107 36.7547826,40.2489375 39.1304348,39.0814732 C51.9130435,32.7972589 60,19.8295714 60,5.62946429 L60,0 L0,0 Z M3.47826087,3.46428571 L56.5217391,3.46428571 L56.5217391,5.62946429 C56.5217391,18.5096786 49.2017391,30.2362857 37.6086957,35.9419643 C34.0504348,37.6914286 31.7391304,41.2960179 31.7391304,45.2522321 L31.7391304,51.7477679 C31.7391304,55.7039821 34.0469565,59.3120357 37.6086957,61.0580357 C49.2017391,66.76025 56.5217391,78.4903214 56.5217391,91.3705357 L56.5217391,93.5357143 L3.47826087,93.5357143 L3.47826087,91.3705357 C3.47826087,78.4903214 10.7982609,66.7637143 22.3913043,61.0580357 C25.9530435,59.3085714 28.2608696,55.7005179 28.2608696,51.7477679 L28.2608696,45.2522321 C28.2608696,41.2960179 25.9530435,37.6914286 22.3913043,35.9419643 C10.7982609,30.23975 3.47826087,18.5096786 3.47826087,5.62946429 L3.47826087,3.46428571 Z" id="Shape" fill="#00C5CA"></path>
            </g>
        </g>
    </g>
</svg>